<?xml version="1.0" encoding="UTF-8"?>
<svg version="1.1" xmlns="http://www.w3.org/2000/svg" width="517" height="518">
<path d="M0 0 C1.50046875 1.19109375 1.50046875 1.19109375 3.03125 2.40625 C16.90903838 13.76080413 30.24652157 26.62034862 41 41 C41.83835507 42.08608156 42.67690955 43.17200921 43.515625 44.2578125 C67.54840443 75.7826272 84.01083332 112.18755647 92 151 C92.21027832 152.00111816 92.42055664 153.00223633 92.63720703 154.03369141 C98.98924225 185.75363289 98.68608653 221.37374941 92 253 C91.67056396 254.56282715 91.67056396 254.56282715 91.33447266 256.15722656 C86.69761314 277.41524211 79.44210776 297.4253938 70 317 C69.65243652 317.72251953 69.30487305 318.44503906 68.94677734 319.18945312 C57.5741427 342.48527236 41.93356226 363.3815859 24 382 C23.41702148 382.61020996 22.83404297 383.22041992 22.23339844 383.84912109 C14.24050751 392.18018915 6.03789987 399.81256934 -3.24072266 406.68945312 C-5.02412413 408.01797091 -6.78409516 409.37360037 -8.54296875 410.734375 C-61.05422081 450.88169786 -130.61589768 467.63672249 -195.80981445 459.41064453 C-243.37775013 452.74109575 -287.56146734 434.06286164 -325 404 C-326.0003125 403.2059375 -327.000625 402.411875 -328.03125 401.59375 C-341.90903838 390.23919587 -355.24652157 377.37965138 -366 363 C-366.83835507 361.91391844 -367.67690955 360.82799079 -368.515625 359.7421875 C-392.54840443 328.2173728 -409.01083332 291.81244353 -417 253 C-417.21027832 251.99888184 -417.42055664 250.99776367 -417.63720703 249.96630859 C-423.98924225 218.24636711 -423.68608653 182.62625059 -417 151 C-416.78037598 149.95811523 -416.56075195 148.91623047 -416.33447266 147.84277344 C-411.69761314 126.58475789 -404.44210776 106.5746062 -395 87 C-394.65243652 86.27748047 -394.30487305 85.55496094 -393.94677734 84.81054688 C-382.5741427 61.51472764 -366.93356226 40.6184141 -349 22 C-348.41702148 21.38979004 -347.83404297 20.77958008 -347.23339844 20.15087891 C-339.24050751 11.81981085 -331.03789987 4.18743066 -321.75927734 -2.68945312 C-319.97587587 -4.01797091 -318.21590484 -5.37360037 -316.45703125 -6.734375 C-240.68551919 -64.66526103 -136.57384018 -71.3614628 0 0 Z " fill="#1E3B3E" transform="translate(421,57)"/>
<path d="M0 0 C1.50046875 1.19109375 1.50046875 1.19109375 3.03125 2.40625 C16.90903838 13.76080413 30.24652157 26.62034862 41 41 C41.83835507 42.08608156 42.67690955 43.17200921 43.515625 44.2578125 C67.54840443 75.7826272 84.01083332 112.18755647 92 151 C92.21027832 152.00111816 92.42055664 153.00223633 92.63720703 154.03369141 C98.98924225 185.75363289 98.68608653 221.37374941 92 253 C91.67056396 254.56282715 91.67056396 254.56282715 91.33447266 256.15722656 C86.69761314 277.41524211 79.44210776 297.4253938 70 317 C69.65243652 317.72251953 69.30487305 318.44503906 68.94677734 319.18945312 C57.5741427 342.48527236 41.93356226 363.3815859 24 382 C23.41702148 382.61020996 22.83404297 383.22041992 22.23339844 383.84912109 C14.24050751 392.18018915 6.03789987 399.81256934 -3.24072266 406.68945312 C-5.02412413 408.01797091 -6.78409516 409.37360037 -8.54296875 410.734375 C-61.05422081 450.88169786 -130.61589768 467.63672249 -195.80981445 459.41064453 C-243.37775013 452.74109575 -287.56146734 434.06286164 -325 404 C-326.0003125 403.2059375 -327.000625 402.411875 -328.03125 401.59375 C-341.90903838 390.23919587 -355.24652157 377.37965138 -366 363 C-366.83835507 361.91391844 -367.67690955 360.82799079 -368.515625 359.7421875 C-392.54840443 328.2173728 -409.01083332 291.81244353 -417 253 C-417.21027832 251.99888184 -417.42055664 250.99776367 -417.63720703 249.96630859 C-423.98924225 218.24636711 -423.68608653 182.62625059 -417 151 C-416.78037598 149.95811523 -416.56075195 148.91623047 -416.33447266 147.84277344 C-411.69761314 126.58475789 -404.44210776 106.5746062 -395 87 C-394.65243652 86.27748047 -394.30487305 85.55496094 -393.94677734 84.81054688 C-382.5741427 61.51472764 -366.93356226 40.6184141 -349 22 C-348.41702148 21.38979004 -347.83404297 20.77958008 -347.23339844 20.15087891 C-339.24050751 11.81981085 -331.03789987 4.18743066 -321.75927734 -2.68945312 C-319.97587587 -4.01797091 -318.21590484 -5.37360037 -316.45703125 -6.734375 C-240.68551919 -64.66526103 -136.57384018 -71.3614628 0 0 Z M-226 0 C-226.84804199 0.2676416 -227.69608398 0.5352832 -228.56982422 0.81103516 C-260.989484 11.28635307 -288.56329078 29.59365097 -313 53 C-313.75023437 53.70898438 -314.50046875 54.41796875 -315.2734375 55.1484375 C-333.31331008 72.61787932 -346.13230864 94.60075378 -357 117 C-357.52980469 118.01835937 -358.05960937 119.03671875 -358.60546875 120.0859375 C-360.02225608 123.0465071 -361.01073882 125.916285 -361.9375 129.0625 C-363.96171544 135.88172007 -363.96171544 135.88172007 -365.00390625 139.1015625 C-367.02490923 145.36270899 -368.69113276 151.64580936 -370.125 158.0625 C-370.28355469 158.76979248 -370.44210937 159.47708496 -370.60546875 160.20581055 C-371.09596814 162.46586895 -371.5475719 164.73203524 -372 167 C-372.18095215 167.79398193 -372.3619043 168.58796387 -372.54833984 169.40600586 C-374.54864749 179.26338582 -374.37214927 189.24413439 -374.37060547 199.25952148 C-374.37494744 202.39949093 -374.41126908 205.53801528 -374.44921875 208.67773438 C-374.61299649 238.1057873 -367.07857717 267.67689006 -354 294 C-353.66339355 294.68255859 -353.32678711 295.36511719 -352.97998047 296.06835938 C-331.3711455 339.50786522 -295.14469655 374.82832616 -251 395 C-249.989375 395.47566406 -248.97875 395.95132812 -247.9375 396.44140625 C-225.0154311 406.79418029 -199.23168062 413.78507938 -174 414 C-172.82518066 414.01369629 -171.65036133 414.02739258 -170.43994141 414.04150391 C-166.33500241 414.08569564 -162.23014135 414.10979332 -158.125 414.125 C-157.10063339 414.12942612 -157.10063339 414.12942612 -156.05557251 414.13394165 C-154.10216089 414.13967651 -152.14872921 414.13642049 -150.1953125 414.1328125 C-149.05078613 414.13168457 -147.90625977 414.13055664 -146.72705078 414.12939453 C-144.0347229 414.1858279 -144.0347229 414.1858279 -142 413 C-139.691218 412.69911357 -137.37761674 412.43497002 -135.0625 412.1875 C-83.37498372 406.15679609 -32.85920623 378.6259277 0 338 C19.87331365 312.84832428 33.88279465 285.55161925 42.1875 254.625 C42.42549316 253.75343262 42.66348633 252.88186523 42.90869141 251.98388672 C47.04483884 235.98711188 48.51725211 220.24002123 48.44604492 203.74951172 C48.43754528 200.76589529 48.46642302 197.78421015 48.49804688 194.80078125 C48.56403568 176.84223999 46.10363607 159.21494661 40.875 142 C40.58206055 141.02200439 40.28912109 140.04400879 39.98730469 139.03637695 C31.00944963 110.17733462 15.68353244 82.61658864 -5.32421875 60.79296875 C-7.51840738 58.50268427 -9.58817548 56.17797115 -11.625 53.75 C-23.11303772 40.54980281 -38.26800672 30.27291067 -53 21 C-53.60086426 20.6198877 -54.20172852 20.23977539 -54.82080078 19.84814453 C-72.92617878 8.57812123 -93.49059379 1.50275764 -114 -4 C-115.90072266 -4.52207031 -115.90072266 -4.52207031 -117.83984375 -5.0546875 C-152.46131147 -13.51534857 -192.27565384 -10.70426724 -226 0 Z " fill="#EBEBEB" transform="translate(421,57)"/>
<path d="M0 0 C5.18130098 1.62063524 10.08136323 3.72634723 15 6 C15.97960693 6.44956055 15.97960693 6.44956055 16.97900391 6.90820312 C37.09841835 16.2651463 54.98394909 28.65258035 71 44 C71.50563477 44.47840332 72.01126953 44.95680664 72.53222656 45.44970703 C80.19629335 52.72692092 86.86897489 60.39345674 93 69 C93.61439941 69.85585693 93.61439941 69.85585693 94.24121094 70.72900391 C108.9354007 91.39378366 120.23639879 114.99109366 125 140 C125.18046875 140.93457031 125.3609375 141.86914062 125.546875 142.83203125 C130.18841833 167.76464575 130.98883962 193.0607122 126 218 C125.83371094 218.85319824 125.66742188 219.70639648 125.49609375 220.58544922 C118.20148253 256.95719129 100.53461478 289.33692846 75 316 C74.52836426 316.49886719 74.05672852 316.99773437 73.57080078 317.51171875 C41.02726616 351.80751277 -6.14440724 373.75509824 -53.54345703 375.10058594 C-57.59183695 375.18208681 -61.63845962 375.2274336 -65.6875 375.25 C-67.61166748 375.26426025 -67.61166748 375.26426025 -69.57470703 375.27880859 C-104.66080288 375.15746562 -104.66080288 375.15746562 -114.73046875 365.59765625 C-118.26653095 361.14765797 -118.4272973 357.24335161 -118.31640625 351.69140625 C-117.86926208 347.88792063 -116.54600541 345.82124923 -114 343 C-113.01 341.824375 -113.01 341.824375 -112 340.625 C-105.3219555 337.0077259 -97.53176278 338.85987327 -90.33276367 340.08300781 C-72.85180203 343.04888469 -54.43321694 343.62717259 -37 340 C-36.21270508 339.84934082 -35.42541016 339.69868164 -34.61425781 339.54345703 C-2.47974353 333.35093031 25.57360708 318.86945045 49 296 C49.77472656 295.28714844 50.54945313 294.57429688 51.34765625 293.83984375 C77.83934611 268.84327572 94.53153463 229.04685544 96.14038086 192.84082031 C97.43083094 145.45781051 83.80563791 105.71973973 51.72265625 70.5 C35.86244648 53.96048888 15.52226655 41.66628535 -5.6875 33.3125 C-11.34838896 31.01132562 -14.39126521 28.38536538 -17.8125 23.3125 C-19.43782488 18.77869902 -19.69823426 14.76350932 -19 10 C-14.72073851 1.44147703 -9.28346402 -1.57964702 0 0 Z " fill="#B8E36A" transform="translate(322,77)"/>
<path d="M0 0 C0.77078888 -0.00199402 1.54157776 -0.00398804 2.33572388 -0.00604248 C4.54972553 -0.00539213 6.76273028 0.01269245 8.9765625 0.0390625 C10.89976318 0.06154053 10.89976318 0.06154053 12.86181641 0.08447266 C18.09222607 0.51700827 22.1784679 1.75605186 26.125 5.25 C26.69734375 5.74242188 27.2696875 6.23484375 27.859375 6.7421875 C31.36089847 10.51444732 31.8188609 14.01258951 31.6875 18.99609375 C30.988489 24.31731496 28.96725475 28.06439879 24.83959961 31.46191406 C20.46758619 33.87605663 17.37559137 33.8974707 12.48046875 33.80859375 C10.71386503 33.81412844 8.94726333 33.82033929 7.18066406 33.82714844 C6.26256958 33.8238855 5.3444751 33.82062256 4.39855957 33.81726074 C-12.7909681 33.7884056 -29.00133927 34.6087756 -45.625 39.375 C-46.32850586 39.57641602 -47.03201172 39.77783203 -47.75683594 39.98535156 C-57.09017697 42.77929023 -65.90910097 47.07025519 -74.625 51.375 C-75.56988281 51.83519531 -76.51476562 52.29539063 -77.48828125 52.76953125 C-90.6741472 59.54804308 -102.02383131 69.12332038 -112.625 79.375 C-113.59375 80.29166667 -114.5625 81.20833333 -115.53125 82.125 C-140.59489357 106.3623696 -158.00814133 143.83175987 -159.80200195 178.828125 C-159.86950593 183.01068187 -159.9237907 187.19192129 -159.9375 191.375 C-159.94142761 192.51332779 -159.94142761 192.51332779 -159.94543457 193.6746521 C-159.95020592 206.59767333 -158.8300882 218.81219893 -155.625 231.375 C-155.33625 232.54804688 -155.0475 233.72109375 -154.75 234.9296875 C-144.14692754 272.89247371 -118.80829094 308.35035525 -84.65332031 328.54052734 C-81.64391541 330.2253438 -78.61977917 331.8505747 -75.55078125 333.42578125 C-71.51727457 336.11299064 -69.11611988 339.07106997 -68.09375 343.8671875 C-68.192106 351.36683253 -69.7644152 356.5144152 -75.125 361.875 C-80.65821236 364.24637673 -84.71282823 364.82159522 -90.625 363.375 C-97.41843566 360.17755628 -103.54615891 355.74292652 -109.625 351.375 C-110.27243164 350.9114209 -110.91986328 350.4478418 -111.58691406 349.97021484 C-119.0127148 344.58560077 -125.97725835 338.69185859 -132.625 332.375 C-133.12499512 331.90223633 -133.62499023 331.42947266 -134.14013672 330.94238281 C-146.61697274 319.068714 -156.65947655 306.05050512 -165.625 291.375 C-166.24117187 290.37855469 -166.85734375 289.38210938 -167.4921875 288.35546875 C-193.87487954 244.56019997 -198.52682627 191.9304604 -186.37890625 142.91015625 C-176.91056619 106.5997389 -155.9004221 71.27922895 -126.625 47.375 C-126.11372559 46.94606445 -125.60245117 46.51712891 -125.07568359 46.07519531 C-106.51524707 30.51245631 -85.66247403 18.02960715 -62.625 10.375 C-61.87943848 10.12121582 -61.13387695 9.86743164 -60.36572266 9.60595703 C-40.45480381 2.90544594 -20.9572076 0.01458043 0 0 Z " fill="#5DBD5F" transform="translate(257.625,66.625)"/>
<path d="M0 0 C4.04738239 0.79502154 6.3139867 2.09423336 9.5 4.6875 C12.0240412 8.4735618 11.78456385 11.48060066 11.76742554 15.8664093 C11.77195665 16.71003452 11.77648776 17.55365974 11.78115618 18.42284936 C11.79385403 21.26022615 11.79217635 24.09741232 11.79052734 26.93481445 C11.79650928 28.96490731 11.80331404 30.99499789 11.81088257 33.02508545 C11.82858495 38.54787392 11.83323976 44.07060045 11.83451414 49.59341455 C11.83641095 54.20080478 11.84376607 58.80818052 11.85085833 63.41556519 C11.86715638 74.28510755 11.87202603 85.15461676 11.87060547 96.02416992 C11.869404 107.24236078 11.8905037 118.46035926 11.9220928 129.67850143 C11.94823303 139.30406295 11.95897369 148.92956156 11.95769465 158.55515832 C11.95718431 164.30659407 11.96290727 170.05785896 11.98405075 175.80925941 C12.00339484 181.21915896 12.00358372 186.62872401 11.98901749 192.03863525 C11.98692346 194.02440567 11.9916655 196.01019681 12.0037384 197.99593163 C12.01915305 200.70689568 12.00990787 203.41670104 11.99447632 206.12763977 C12.00476344 206.91354266 12.01505057 207.69944555 12.02564943 208.50916368 C11.96012777 213.71778292 10.8250525 216.69420775 7.5 220.6875 C3.7626144 223.1790904 1.92668417 223.14543285 -2.5 222.6875 C-6.01504675 220.5003598 -8.06787204 218.55325966 -9.5 214.6875 C-9.69842588 211.89032103 -9.78702771 209.1923264 -9.78088379 206.39506531 C-9.78682603 205.55129123 -9.79276828 204.70751715 -9.79889059 203.83817416 C-9.81625623 201.0062525 -9.81928029 198.17450001 -9.82226562 195.3425293 C-9.83152253 193.31391031 -9.84157192 191.2852948 -9.85235596 189.25668335 C-9.87860148 183.7421646 -9.89149316 178.22769454 -9.90037727 172.71312308 C-9.90623868 169.26837047 -9.91444825 165.82363118 -9.92338562 162.37888527 C-9.95073384 151.60245535 -9.97006841 140.82605585 -9.9777894 130.04959363 C-9.98675309 117.60687113 -10.02186066 105.16458781 -10.07979059 92.72199887 C-10.12300887 83.10574335 -10.1431971 73.48961146 -10.14587164 63.87325984 C-10.14796869 58.12897 -10.15980358 52.38509304 -10.19551086 46.64090538 C-10.22844683 41.23744352 -10.23279666 35.83470546 -10.21523285 30.43117905 C-10.21369072 28.44903819 -10.2223962 26.46685863 -10.24214935 24.4848156 C-10.26756068 21.77597672 -10.25585791 19.06970705 -10.23498535 16.36088562 C-10.25109816 15.57857769 -10.26721097 14.79626976 -10.28381205 13.99025553 C-10.18826164 8.67951781 -8.67737772 5.90459903 -5.12845755 1.98096496 C-3.5 0.6875 -3.5 0.6875 0 0 Z " fill="#B5DF68" transform="translate(304.5,145.3125)"/>
<path d="M0 0 C4.27357986 0.17361418 6.84192929 0.32366206 10.5625 2.6015625 C14.11108429 6.49355817 13.66044813 10.01340803 13.67700195 15.04418945 C13.68357315 15.90451782 13.69014435 16.76484619 13.69691467 17.65124512 C13.71666758 20.50577883 13.72831451 23.36025988 13.73828125 26.21484375 C13.74235678 27.1886669 13.7464323 28.16249004 13.75063133 29.16582298 C13.77150028 34.31977502 13.78579859 39.47370037 13.79516602 44.62768555 C13.806234 49.95432962 13.8406361 55.28055634 13.88033772 60.6070528 C13.9064681 64.69999474 13.91485466 68.7928367 13.91844749 72.88585472 C13.92332248 74.84946703 13.93496232 76.81307461 13.95348549 78.77660561 C13.97780153 81.52499191 13.9769258 84.27229128 13.9699707 87.02075195 C13.98278076 87.83184921 13.99559082 88.64294647 14.00878906 89.47862244 C13.97378748 93.27346387 13.65897088 95.47766713 11.59562683 98.70817566 C8.12228131 102.05350165 5.42946532 102.1160035 0.76171875 102.0859375 C-2.82520929 101.51599384 -4.36838894 99.52430201 -6.5 96.7265625 C-8.10176915 93.5230242 -7.67427082 90.03693453 -7.69287109 86.51660156 C-7.70104858 85.66763306 -7.70922607 84.81866455 -7.71765137 83.94396973 C-7.74251901 81.1267162 -7.75902565 78.30951313 -7.7734375 75.4921875 C-7.77876118 74.53064507 -7.78408485 73.56910263 -7.78956985 72.57842255 C-7.81630852 67.4881622 -7.83568036 62.39792643 -7.85009766 57.30761719 C-7.86673932 52.0504739 -7.91151108 46.79395825 -7.9624691 41.53705215 C-7.99613275 37.49468265 -8.00767418 33.4524622 -8.01332474 29.40996552 C-8.02004059 27.47227944 -8.03527132 25.53460329 -8.05921555 23.59705353 C-8.09084872 20.88221704 -8.09090672 18.1690741 -8.08349609 15.45410156 C-8.09990143 14.65595032 -8.11630676 13.85779907 -8.13320923 13.03546143 C-8.08792059 8.97505537 -7.68940395 6.45496117 -5.11978149 3.22650146 C-2.5 0.7265625 -2.5 0.7265625 0 0 Z " fill="#B4DE69" transform="translate(267.5,204.2734375)"/>
<path d="M0 0 C2.5647293 1.50012468 4.89183465 2.89183465 7 5 C7.11653084 7.83942592 7.16802033 10.65484888 7.17700195 13.49536133 C7.18357315 14.38641068 7.19014435 15.27746002 7.19691467 16.19551086 C7.21669897 19.15768507 7.22832166 22.11980847 7.23828125 25.08203125 C7.24235678 26.09111731 7.2464323 27.10020336 7.25063133 28.13986778 C7.27151402 33.4806943 7.28580617 38.82149496 7.29516602 44.16235352 C7.30623486 49.68753561 7.34063408 55.21231545 7.38033772 60.73735523 C7.40644732 64.97780623 7.41485282 69.2181606 7.41844749 73.45868492 C7.42332814 75.49569096 7.43498389 77.53269227 7.45348549 79.56962013 C7.47775664 82.41889173 7.47693395 85.26711239 7.4699707 88.11645508 C7.48278076 88.96077087 7.49559082 89.80508667 7.50878906 90.67498779 C7.47592187 94.35823403 7.36801781 96.51828458 5.09562683 99.49272156 C1.27254755 102.24246922 -1.27522748 102.40040445 -6 102 C-8.75329021 100.20437595 -10.52627461 98.94745078 -12 96 C-12.1246398 93.15881161 -12.18891154 90.34121762 -12.20874023 87.4987793 C-12.21852402 86.61894379 -12.2283078 85.73910828 -12.23838806 84.83261108 C-12.26836842 81.91316245 -12.28973388 78.99375966 -12.30859375 76.07421875 C-12.31516558 75.07833048 -12.3217374 74.08244221 -12.32850838 73.0563755 C-12.36111242 67.78572637 -12.3855616 62.51509757 -12.4050293 57.24438477 C-12.42285278 52.87820098 -12.45768831 48.51266177 -12.50756836 44.14672852 C-12.56768076 38.87941904 -12.59849271 33.61270797 -12.60820198 28.34507179 C-12.61677264 26.33675999 -12.63563022 24.32846486 -12.6649456 22.32034874 C-12.70377495 19.50932173 -12.70490625 16.70063491 -12.69702148 13.8894043 C-12.71702209 13.05960556 -12.73702271 12.22980682 -12.75762939 11.37486267 C-12.68847416 5.88368596 -12.68847416 5.88368596 -10.72294807 3.36084938 C-7.15986892 0.24395512 -4.67090167 -0.87579406 0 0 Z " fill="#5CBB60" transform="translate(168,206)"/>
<path d="M0 0 C4.12993661 1.03923292 6.7294667 2.93202352 9.05195618 6.51634216 C10.08630822 11.67591314 9.96517107 16.78621389 9.87617493 22.02024841 C9.87326889 23.54668919 9.87288642 25.07313666 9.87490845 26.59957886 C9.87169802 29.79172099 9.84480974 32.98248088 9.79975891 36.17430115 C9.74304065 40.25903395 9.73490509 44.34204724 9.74316692 48.42710972 C9.74596854 51.57657734 9.72833905 54.72566339 9.70403481 57.87502861 C9.69384672 59.38084806 9.68872716 60.88671086 9.68883324 62.39256477 C9.68485204 64.4991364 9.65465561 66.60373809 9.61714172 68.70994568 C9.60491074 69.90652298 9.59267975 71.10310028 9.58007812 72.3359375 C8.95078674 76.12559489 7.71213162 77.79579516 5.05195618 80.51634216 C1.84777897 82.11843077 -1.47143814 82.00919431 -4.94804382 81.51634216 C-8.39117096 79.39185946 -9.66421929 78.36781575 -10.94804382 74.51634216 C-11.0627577 72.31999103 -11.11742484 70.12034668 -11.14091492 67.92112732 C-11.14909241 67.25572433 -11.1572699 66.59032135 -11.16569519 65.90475464 C-11.19048736 63.70498037 -11.20704759 61.50527028 -11.22148132 59.30540466 C-11.226805 58.55314983 -11.23212868 57.800895 -11.23761368 57.02584457 C-11.26431612 53.04547394 -11.28370179 49.06513438 -11.29814148 45.08470154 C-11.31149063 41.79242733 -11.33936392 38.5007715 -11.38017273 35.20872498 C-11.42948347 31.23055074 -11.45425991 27.25293809 -11.46136856 23.27447128 C-11.46808042 21.76019025 -11.48330111 20.24592171 -11.50725937 18.73181534 C-11.53891323 16.6106619 -11.5389495 14.49167407 -11.53153992 12.37034607 C-11.53962677 11.16472015 -11.54771362 9.95909424 -11.55604553 8.7169342 C-10.38573569 2.55628647 -6.29348968 -0.51961279 0 0 Z " fill="#B7E16A" transform="translate(341.9480438232422,218.48365783691406)"/>
<path d="M0 0 C4.2381561 1.04642717 6.76657342 2.73161241 9.05175781 6.5065918 C9.98106993 11.70327014 10.05901587 16.74280289 9.96435547 22.01049805 C9.92682983 24.50181089 9.9640251 26.98430122 10.00878906 29.4753418 C10.04316446 40.8866781 10.04316446 40.8866781 7.55908203 44.94555664 C4.52476726 47.66828708 2.47899383 48.43293041 -1.57324219 49.1315918 C-5.457524 48.41228035 -7.17725891 47.27757508 -9.94824219 44.5065918 C-12.37667391 39.64972835 -11.26081505 32.22330005 -11.29833984 26.82226562 C-11.3148918 25.07538524 -11.34217214 23.32857237 -11.38037109 21.58203125 C-11.43522471 19.06043454 -11.45702545 16.54042405 -11.47167969 14.01831055 C-11.49434906 13.24106125 -11.51701843 12.46381195 -11.54037476 11.66300964 C-11.52478392 7.64809357 -11.12698317 5.73983906 -8.65771484 2.51757812 C-5.70938653 0.32931174 -3.6921832 -0.32217472 0 0 Z " fill="#5DBA5E" transform="translate(200.9482421875,233.493408203125)"/>
<path d="M0 0 C4.32708006 0.10153798 6.96858072 1.33579269 10.08203125 4.328125 C12.75700076 8.69212359 12.23648454 13.55575427 11.375 18.4375 C10.07145538 21.62727968 8.53735566 23.85632217 5.375 25.4375 C2.31579426 25.85821592 -0.5717746 25.92264117 -3.625 25.4375 C-6.38069447 23.25590855 -8.06088747 21.56572506 -9.625 18.4375 C-10.67790309 8.25442301 -10.67790309 8.25442301 -8.54296875 4.5703125 C-7.1875 3.25 -7.1875 3.25 -4.625 1.4375 C-3.625 0.4375 -3.625 0.4375 0 0 Z " fill="#B6E169" transform="translate(234.625,243.5625)"/>
<path d="M0 0 C3.6578218 2.03993908 5.66946174 3.50419262 8 7 C8.70735222 11.77873998 8.82219066 16.41607257 6.125 20.5625 C3.89480884 23.12066045 3.08421402 23.84840193 -0.20703125 24.30859375 C-7.11171989 24.65020503 -7.11171989 24.65020503 -9.734375 22.73046875 C-13.57767634 18.08459566 -14.39652382 14.94785731 -14 9 C-12.70068057 5.44396786 -11.63039155 3.51112829 -8.6875 1.125 C-5.43064391 -0.23833511 -3.50329831 -0.50047119 0 0 Z " fill="#B2DC69" transform="translate(379,245)"/>
<path d="M0 0 C4.49413059 0.36837136 6.41674794 1.39057381 9.8125 4.3125 C12.23671045 8.27938982 12.5583443 12.76640143 11.8125 17.3125 C8.8125 22.8125 8.8125 22.8125 5.8125 24.3125 C1.21373316 24.86362923 -2.16537887 24.93003151 -6.1875 22.5 C-9.8412284 18.50373457 -9.57130089 14.15532495 -9.55078125 8.984375 C-9.1875 6.3125 -9.1875 6.3125 -6.75 3.1875 C-5.904375 2.56875 -5.05875 1.95 -4.1875 1.3125 C-3.1875 0.3125 -3.1875 0.3125 0 0 Z " fill="#5AB95F" transform="translate(129.1875,244.6875)"/>
<path d="M0 0 C1.8871875 0.061875 1.8871875 0.061875 3.8125 0.125 C3.8125 0.455 3.8125 0.785 3.8125 1.125 C2.265625 1.2178125 2.265625 1.2178125 0.6875 1.3125 C-4.07212827 2.31048657 -5.72342963 3.82990867 -9.1875 7.125 C-7.4328046 1.99589037 -5.59164481 -0.18333262 0 0 Z " fill="#50A658" transform="translate(199.1875,233.875)"/>
</svg>
